<?xml version="1.0" standalone="no"?>
<!DOCTYPE svg PUBLIC "-//W3C//DTD SVG 20010904//EN"
 "http://www.w3.org/TR/2001/REC-SVG-20010904/DTD/svg10.dtd">
<svg version="1.0" xmlns="http://www.w3.org/2000/svg"
 width="300.000000pt" height="51.000000pt" viewBox="0 0 300.000000 51.000000"
 preserveAspectRatio="xMidYMid meet">
<metadata>
Created by potrace 1.10, written by Peter Selinger 2001-2011
</metadata>
<g transform="translate(0.000000,51.000000) scale(0.100000,-0.100000)"
fill="#000000" stroke="none">
<path d="M1046 429 l-26 -31 -188 0 c-205 -1 -230 -6 -257 -57 -8 -16 -16 -44
-17 -63 -3 -35 -33 -67 -49 -51 -6 6 -2 16 11 28 30 27 27 89 -5 121 -24 24
-31 25 -113 23 -81 -3 -90 -1 -129 25 -36 24 -50 28 -87 24 -48 -6 -74 -25
-103 -78 -47 -83 -32 -184 35 -240 33 -28 43 -31 85 -27 34 3 56 12 75 30 19
18 32 23 42 17 23 -13 110 0 110 16 0 19 6 18 30 -6 26 -26 81 -26 104 -1 17
19 18 19 52 -1 40 -24 104 -20 134 7 16 15 18 14 23 -4 4 -18 15 -19 163 -19
88 0 169 -1 181 -1 18 -1 22 -8 25 -38 3 -33 6 -38 28 -38 22 0 25 5 28 37 3
35 7 40 52 59 103 44 109 173 10 224 -16 8 -56 15 -90 15 -51 0 -60 3 -60 18
0 18 -18 42 -31 42 -4 0 -19 -14 -33 -31z m-781 -26 c41 -30 63 -154 33 -190
-7 -9 -11 -18 -9 -21 2 -2 -8 -17 -23 -32 -37 -40 -78 -47 -120 -21 -86 53
-88 195 -4 266 36 31 78 30 123 -2z m230 -48 c37 -36 28 -81 -19 -98 -18 -7
-18 -8 -1 -27 24 -26 53 -34 70 -20 12 10 15 9 15 -9 0 -14 -9 -25 -26 -32
-22 -8 -33 -5 -59 13 -29 19 -65 65 -65 82 0 3 11 6 25 6 14 0 29 8 35 21 15
27 -12 59 -50 59 -26 0 -26 0 -27 -77 -1 -43 4 -84 9 -90 8 -10 0 -13 -33 -13
-28 0 -39 3 -31 9 18 11 22 173 4 179 -33 11 -4 22 58 22 62 0 74 -3 95 -25z
m275 20 c0 -1 -16 -19 -35 -39 -34 -36 -35 -37 -35 -13 0 29 -23 41 -50 27
-24 -13 -36 -72 -24 -119 8 -32 13 -36 45 -39 44 -4 80 28 59 53 -13 16 -3 20
24 9 23 -9 19 -33 -9 -60 -38 -35 -73 -40 -114 -18 -26 13 -40 30 -49 58 -11
34 -10 43 10 82 12 26 31 47 45 51 21 7 133 13 133 8z m110 -5 c0 -4 -7 -11
-16 -14 -9 -3 -14 -15 -12 -28 2 -18 10 -23 41 -25 33 -2 37 1 37 22 0 13 -7
28 -16 33 -12 7 -6 10 27 15 42 5 68 -1 42 -10 -18 -6 -17 -53 1 -53 7 0 19
-7 26 -15 11 -13 8 -15 -14 -15 -27 0 -30 -7 -26 -65 1 -16 7 -33 14 -37 6 -4
-11 -8 -38 -8 -43 0 -48 2 -32 13 14 10 17 23 14 57 -3 41 -5 44 -33 44 -30 0
-30 -1 -30 -57 l1 -57 -41 0 c-22 0 -35 4 -29 8 31 20 24 112 -8 112 -10 0
-17 4 -14 9 3 5 15 7 26 4 14 -4 20 0 20 10 0 26 -12 47 -26 47 -8 0 -14 4
-14 10 0 5 23 9 50 9 28 -1 50 -5 50 -9z m220 -6 c0 -8 -4 -12 -10 -9 -5 3
-11 -2 -11 -12 -3 -38 3 -148 7 -155 3 -4 18 -8 35 -8 l29 0 0 67 c0 49 -5 71
-17 86 -17 18 -16 18 17 15 l35 -3 3 -77 c3 -69 5 -78 22 -78 28 0 50 38 50
86 0 51 -19 70 -83 79 -26 4 -50 11 -53 16 -9 15 86 10 121 -7 57 -27 77 -98
42 -144 -20 -26 -60 -50 -84 -50 -18 0 -23 -6 -23 -25 0 -31 -17 -33 -22 -3
-3 22 -8 23 -75 22 -69 0 -91 7 -59 19 21 8 22 177 1 177 -8 0 -15 5 -15 10 0
6 20 10 45 10 34 0 45 -4 45 -16z m-300 -34 c0 -5 -9 -10 -21 -10 -12 0 -23
-8 -26 -20 -3 -11 -12 -20 -20 -20 -11 0 -9 7 7 30 20 28 60 42 60 20z m-352
-23 c2 -10 -3 -17 -12 -17 -10 0 -16 9 -16 21 0 24 23 21 28 -4z m232 3 c0
-11 6 -23 14 -26 8 -3 13 -18 12 -37 -1 -27 -6 -32 -26 -32 -31 0 -49 52 -32
90 14 30 32 33 32 5z m450 -56 c0 -41 -4 -54 -15 -54 -12 0 -15 14 -15 66 0
58 2 65 15 54 10 -8 15 -31 15 -66z m105 16 c0 -26 -5 -45 -12 -47 -9 -3 -13
10 -13 47 0 37 4 50 13 48 7 -3 12 -22 12 -48z m-325 -40 c0 -20 -5 -30 -15
-30 -10 0 -15 10 -15 30 0 20 5 30 15 30 10 0 15 -10 15 -30z m105 -3 c0 -39
-19 -38 -23 2 -3 24 0 32 10 29 7 -3 13 -17 13 -31z"/>
<path d="M160 385 c-19 -20 -25 -40 -28 -88 -5 -82 8 -128 41 -147 25 -14 28
-13 56 15 21 21 31 44 35 77 6 47 -8 132 -27 156 -16 20 -52 14 -77 -13z m69
-32 c6 -21 11 -61 11 -90 0 -41 -5 -58 -25 -80 -24 -27 -26 -27 -40 -9 -32 41
-31 162 2 199 25 27 41 20 52 -20z"/>
<path d="M1638 443 c-14 -14 -22 -15 -43 -5 -53 24 -105 4 -146 -57 -32 -48
-34 -159 -4 -210 24 -41 77 -71 124 -71 39 0 98 35 107 63 6 18 7 18 28 -2 20
-19 31 -20 155 -16 120 5 137 8 177 31 44 26 64 25 64 -2 0 -23 47 -40 70 -26
12 7 21 8 25 2 4 -6 49 -8 120 -4 76 5 119 3 127 -4 18 -15 158 8 158 26 0 8
9 6 29 -9 22 -16 37 -20 63 -15 18 3 63 6 101 6 65 -1 67 0 67 24 0 14 -4 27
-9 30 -16 10 1 49 46 110 54 71 51 88 -14 84 -44 -3 -48 -5 -48 -30 -1 -14 -7
-33 -14 -42 -12 -15 -15 -15 -27 1 -7 10 -10 30 -7 45 l5 27 -151 0 c-130 1
-153 -2 -158 -16 -3 -8 -1 -24 5 -34 17 -26 15 -89 -1 -89 -8 0 -24 -11 -37
-25 -39 -42 -50 -33 -50 39 0 49 4 65 16 70 9 3 14 15 12 28 -3 22 -7 23 -113
26 -92 2 -117 -1 -156 -18 -61 -26 -67 -25 -81 6 -10 22 -16 25 -42 20 -17 -4
-78 -6 -136 -6 -90 0 -111 -3 -150 -22 -27 -14 -50 -35 -59 -55 -15 -30 -18
-31 -62 -26 -38 5 -50 2 -68 -16 -25 -25 -27 -58 -5 -89 21 -30 11 -39 -14
-14 -35 35 -37 139 -3 191 15 23 41 5 41 -29 0 -44 34 -41 61 5 12 20 30 40
40 46 25 13 24 45 0 59 -25 13 -24 13 -43 -7z m7 -23 c27 23 29 1 3 -28 -14
-15 -30 -36 -36 -47 -11 -19 -11 -18 -12 6 0 60 -64 66 -93 9 -23 -44 -18
-162 9 -191 37 -41 124 -7 124 47 0 23 -31 49 -44 37 -12 -12 -6 -33 9 -33 20
0 19 -19 0 -26 -19 -8 -45 13 -45 34 0 23 30 52 55 52 12 0 30 -9 40 -20 22
-24 35 -26 35 -5 0 28 38 90 62 102 30 15 128 24 128 12 0 -5 -5 -9 -10 -9
-11 0 -7 -141 5 -172 5 -12 -2 -17 -34 -20 -23 -2 -41 0 -41 4 0 5 5 8 10 8 6
0 10 23 10 51 0 50 0 51 -27 44 -14 -3 -35 -12 -45 -19 -17 -13 -17 -14 12
-26 36 -15 38 -29 5 -53 -24 -17 -25 -17 -42 1 -10 10 -23 27 -29 37 -9 17
-12 15 -30 -21 -57 -116 -205 -74 -220 62 -4 38 0 59 18 94 30 59 73 82 128
68 30 -8 44 -7 55 2z m417 -55 c14 -30 36 -32 103 -6 52 20 125 26 125 10 0
-5 -4 -9 -10 -9 -6 0 -10 -35 -10 -85 0 -50 4 -85 10 -85 6 0 10 -4 10 -9 0
-5 -18 -11 -40 -13 -22 -2 -40 0 -40 4 0 5 5 8 10 8 6 0 10 23 10 50 0 55 -4
57 -57 35 l-37 -16 33 -20 33 -20 -22 -24 c-26 -28 -45 -23 -65 16 -13 25 -18
27 -40 19 -16 -6 -25 -6 -25 0 0 5 11 12 25 16 18 4 25 13 25 29 0 13 5 27 10
30 17 10 11 25 -10 25 -15 0 -20 -7 -20 -26 0 -27 -51 -98 -79 -110 -27 -11
-111 -15 -111 -5 0 5 5 11 12 13 12 4 15 130 3 167 -6 19 -3 21 30 21 26 0 34
-3 28 -12 -4 -7 -8 -50 -9 -95 l-1 -81 26 9 c31 11 47 34 56 81 6 33 5 36 -24
41 -38 8 -40 27 -3 49 36 23 40 22 54 -7z m330 -5 c-17 -16 -19 -30 -18 -92 2
-72 3 -73 30 -76 20 -3 37 5 58 25 l30 28 -7 -35 c-4 -19 -9 -37 -10 -40 -2
-3 -40 -4 -85 -2 -66 3 -79 6 -70 17 9 11 14 77 11 153 -1 12 -7 22 -16 22 -8
0 -15 4 -15 10 0 5 25 9 56 9 54 -1 55 -2 36 -19z m262 9 c47 -22 41 -100 -8
-113 -19 -5 -19 -6 -2 -25 25 -27 54 -35 71 -21 12 10 15 9 15 -9 0 -14 -9
-25 -26 -32 -23 -8 -33 -5 -64 16 -31 21 -60 61 -60 80 0 3 11 5 25 5 14 0 29
8 35 21 15 27 -12 59 -50 59 -26 0 -26 0 -27 -77 -1 -43 4 -84 9 -90 8 -10 0
-13 -33 -13 -27 0 -39 3 -31 9 15 9 21 141 8 179 -7 21 -5 22 53 22 33 0 71
-5 85 -11z m106 -13 c0 -12 11 -34 23 -50 l23 -29 28 29 c18 19 26 37 23 52
-4 19 0 22 25 22 l28 0 -27 -42 c-15 -24 -35 -54 -45 -67 -19 -25 -25 -81 -8
-81 6 0 10 -4 10 -10 0 -5 -19 -10 -42 -10 -33 0 -39 3 -30 12 21 21 13 71
-18 108 -17 19 -30 38 -30 43 0 5 -10 17 -22 28 l-23 18 43 -1 c35 -1 42 -4
42 -22z m-860 -47 c0 -17 -4 -28 -10 -24 -5 3 -10 17 -10 31 0 13 5 24 10 24
6 0 10 -14 10 -31z m410 -40 c0 -38 -4 -68 -8 -65 -12 7 -13 136 -1 136 5 0 9
-32 9 -71z m308 38 c2 -10 -3 -17 -12 -17 -10 0 -16 9 -16 21 0 24 23 21 28
-4z m-598 -12 c0 -1 -5 -16 -11 -34 -10 -30 -35 -39 -33 -13 1 7 2 23 3 36 1
19 5 23 21 19 11 -3 20 -6 20 -8z m740 -73 l0 -24 -19 23 c-16 20 -21 21 -34
10 -28 -23 -39 -2 -15 29 l23 28 23 -21 c12 -11 22 -31 22 -45z"/>
<path d="M1760 330 c-28 -28 -25 -42 8 -34 48 10 52 13 52 34 0 26 -33 27 -60
0z"/>
<path d="M2190 347 c-14 -6 -26 -11 -26 -11 -1 -1 -5 -11 -8 -23 -7 -21 -5
-22 26 -17 43 8 50 16 41 41 -7 17 -12 19 -33 10z"/>
</g>
</svg>
